<svg viewBox="0 0 549.92853 265"><g transform="translate(-36.352 -120.593)"><text x="248.603" y="384.105" class="label">ServiceWorker</text><use xlink:href="#diagram-sw" width="549.929" height="342.978" transform="translate(160.325 204.743)"></use><text x="89.548" y="252.972" class="label">Page</text><use transform="translate(-31.309 48.726)" height="342.978" width="549.929" xlink:href="#diagram-page"></use><text x="537.439" y="383.491" class="label">Network</text><use xlink:href="#diagram-network" width="549.929" height="342.978" transform="translate(455.439 210.129)"></use><text x="400.625" y="253.272" class="label">Cache</text><use transform="translate(323.347 80.91)" height="342.978" width="549.929" xlink:href="#diagram-cache"></use><g class="anim sequence"><g class="anim" data-time-padding="0.6" style="display: inline;"><g class="joiner" style="display: inline;"><path d="M125.228 217.424c-.572 41.786 20.007 74.986 60.648 75.56" style="stroke-dasharray: 109.124, 109.124; stroke-dashoffset: 0; transition: stroke-dashoffset 0.727496s ease-in-out 0s;"></path><path d="M177.64 287.113l10.897 5.65-10.857 5.002" style="stroke-dasharray: 24.2285, 24.2285; stroke-dashoffset: 0; transition: stroke-dashoffset 0.161523s ease-in-out 0.827496s;"></path></g><text x="168.128" y="196.32" class="fade-in state-label" transform="translate(-33.772 202.062) translate(0 -90)" style="display: inline; opacity: 1; transition: opacity 0.6s cubic-bezier(0.455, 0.03, 0.515, 0.955) 0s;">1</text></g><g class="anim" data-time-padding="0.6" style="display: inline;"><g class="joiner" style="display: inline;"><path d="M304.587 319.783c42.535 26.945 131.032 32.45 186.58 10.876" style="stroke-dasharray: 192.106, 192.106; stroke-dashoffset: 0; transition: stroke-dashoffset 1.28071s ease-in-out 1.68902s;"></path><path d="M480.67 328.615l12.032 1.294-8.38 8.604" style="stroke-dasharray: 24.1119, 24.1119; stroke-dashoffset: 0; transition: stroke-dashoffset 0.160746s ease-in-out 3.06973s;"></path></g><text class="fade-in state-label" y="201.45" x="213.165" transform="translate(-33.772 202.062) translate(220 -30)" style="display: inline; opacity: 1; transition: opacity 0.6s cubic-bezier(0.455, 0.03, 0.515, 0.955) 1.68902s;">2</text></g><g class="anim" data-time-padding="0.6" style="display: inline;"><g class="joiner" style="display: inline;"><path d="M485.305 298.69c-256.192-4.98-84.462-128.887-340.756-128.798" style="stroke-dasharray: 383.196, 383.196; stroke-dashoffset: 0; transition: stroke-dashoffset 2s ease-in-out 3.93047s;"></path><path d="M152.65 164.397l-9.692 5.7 9.692 5.132" style="stroke-dasharray: 22.2108, 22.2108; stroke-dashoffset: 0; transition: stroke-dashoffset 0.148072s ease-in-out 6.03047s;"></path></g><text x="116.819" y="71.469" class="fade-in state-label" transform="translate(-33.772 202.062) translate(210.879 -89.29)" style="display: inline; opacity: 1; transition: opacity 0.6s cubic-bezier(0.455, 0.03, 0.515, 0.955) 3.93047s;">3</text><g class="joiner" style="display: inline;"><path d="M485.306 298.69c-119.805-2.33-146.03-30.666-166.21-60.167-22.97-33.584-7.32-70.388 30.117-70.34" style="stroke-dasharray: 281.866, 281.866; stroke-dashoffset: 0; transition: stroke-dashoffset 1.87911s ease-in-out 3.93047s;"></path><path d="M340.78 164.397l9.692 4.56-10.262 4.562" style="stroke-dasharray: 21.9415, 21.9415; stroke-dashoffset: 0; transition: stroke-dashoffset 0.146276s ease-in-out 5.90958s;"></path></g></g></g></g></svg>